<mxfile host="app.diagrams.net" modified="2024-06-13T11:46:28.641Z" agent="Mozilla/5.0 (X11; Linux x86_64) AppleWebKit/537.36 (KHTML, like Gecko) Chrome/122.0.0.0 Safari/537.36" version="24.5.2" etag="fcjq2c6gqGAndZaB0Hjf" type="github">
  <diagram name="Page-1" id="IN-ifNznBY8e0DxRMzR0">
    <mxGraphModel>
      <root>
        <mxCell id="0" />
        <mxCell id="1" parent="0" />
      </root>
    </mxGraphModel>
  </diagram>
</mxfile>
